<mxfile host="app.diagrams.net" agent="Mozilla/5.0 (Macintosh; Intel Mac OS X 10_15_7) AppleWebKit/537.36 (KHTML, like Gecko) Chrome/127.0.0.0 Safari/537.36" version="24.7.7">
  <diagram name="Page-1" id="jFtiHO4ad6jZevAUF7xw">
    <mxGraphModel dx="2540" dy="3104" grid="0" gridSize="10" guides="1" tooltips="1" connect="1" arrows="1" fold="1" page="0" pageScale="1" pageWidth="850" pageHeight="1100" math="0" shadow="0">
      <root>
        <mxCell id="0" />
        <mxCell id="1" parent="0" />
        <mxCell id="QwA7imb9_G3cZJTcEvYQ-18" value="" style="verticalLabelPosition=bottom;verticalAlign=top;html=1;shape=mxgraph.basic.rect;fillColor2=none;strokeWidth=1;size=20;indent=5;strokeColor=#FFFFFF;fillColor=#00FF00;rotation=0;rectStyle=rounded;" parent="1" vertex="1">
          <mxGeometry x="-374" y="1313" width="416.75" height="183" as="geometry">
            <mxPoint x="-1" y="-1" as="offset" />
          </mxGeometry>
        </mxCell>
        <mxCell id="QwA7imb9_G3cZJTcEvYQ-128" value="" style="verticalLabelPosition=bottom;verticalAlign=top;html=1;shape=mxgraph.basic.rect;fillColor2=none;strokeWidth=1;size=20;indent=5;strokeColor=#3399FF;fillColor=#00CCCC;rotation=0;rectStyle=rounded;" parent="1" vertex="1">
          <mxGeometry x="-371" y="1543" width="217" height="154" as="geometry">
            <mxPoint x="-1" y="-1" as="offset" />
          </mxGeometry>
        </mxCell>
        <mxCell id="QwA7imb9_G3cZJTcEvYQ-142" value="" style="verticalLabelPosition=bottom;verticalAlign=top;html=1;shape=mxgraph.basic.rect;fillColor2=none;strokeWidth=1;size=20;indent=5;strokeColor=#FFFFFF;fillColor=#999999;rotation=0;rectStyle=rounded;" parent="1" vertex="1">
          <mxGeometry x="-316.49" y="1627.5" width="117" height="27.5" as="geometry">
            <mxPoint x="-1" y="-1" as="offset" />
          </mxGeometry>
        </mxCell>
        <mxCell id="QwA7imb9_G3cZJTcEvYQ-143" value="" style="verticalLabelPosition=bottom;verticalAlign=top;html=1;shape=mxgraph.basic.rect;fillColor2=none;strokeWidth=1;size=20;indent=5;strokeColor=#FFFFFF;fillColor=#999999;rotation=0;rectStyle=rounded;" parent="1" vertex="1">
          <mxGeometry x="-314.25" y="1662" width="117" height="27.5" as="geometry">
            <mxPoint x="-1" y="-1" as="offset" />
          </mxGeometry>
        </mxCell>
        <mxCell id="QwA7imb9_G3cZJTcEvYQ-130" value="" style="verticalLabelPosition=bottom;verticalAlign=top;html=1;shape=mxgraph.basic.rect;fillColor2=none;strokeWidth=1;size=20;indent=5;strokeColor=#3399FF;fillColor=#00CCCC;rotation=0;rectStyle=rounded;" parent="1" vertex="1">
          <mxGeometry x="69" y="1432" width="265" height="211.5" as="geometry">
            <mxPoint x="-1" y="-1" as="offset" />
          </mxGeometry>
        </mxCell>
        <mxCell id="QwA7imb9_G3cZJTcEvYQ-63" value="" style="verticalLabelPosition=bottom;verticalAlign=top;html=1;shape=mxgraph.basic.rect;fillColor2=none;strokeWidth=1;size=20;indent=5;strokeColor=#3399FF;fillColor=#FF66B3;rotation=0;rectStyle=rounded;" parent="1" vertex="1">
          <mxGeometry x="85" y="1704" width="258" height="177" as="geometry">
            <mxPoint x="-1" y="-1" as="offset" />
          </mxGeometry>
        </mxCell>
        <mxCell id="QwA7imb9_G3cZJTcEvYQ-15" value="" style="verticalLabelPosition=bottom;verticalAlign=top;html=1;shape=mxgraph.basic.rect;fillColor2=none;strokeWidth=1;size=20;indent=5;strokeColor=#FFFFFF;fillColor=#CC6600;rectStyle=rounded;" parent="1" vertex="1">
          <mxGeometry x="102" y="1235" width="213" height="171" as="geometry" />
        </mxCell>
        <mxCell id="QwA7imb9_G3cZJTcEvYQ-96" value="" style="verticalLabelPosition=bottom;verticalAlign=top;html=1;shape=mxgraph.basic.rect;fillColor2=none;strokeWidth=1;size=20;indent=5;strokeColor=#FFFFFF;fillColor=#999999;rotation=0;rectStyle=rounded;" parent="1" vertex="1">
          <mxGeometry x="151.13" y="1363" width="115.5" height="27.25" as="geometry">
            <mxPoint x="-1" y="-1" as="offset" />
          </mxGeometry>
        </mxCell>
        <mxCell id="QwA7imb9_G3cZJTcEvYQ-95" value="&lt;font style=&quot;font-size: 9px;&quot; color=&quot;#ffffff&quot;&gt;Server Infrastructure&lt;/font&gt;" style="text;strokeColor=none;fillColor=none;html=1;align=center;verticalAlign=middle;whiteSpace=wrap;rounded=0;fontSize=16;" parent="1" vertex="1">
          <mxGeometry x="148.63" y="1365.88" width="118" height="21.5" as="geometry" />
        </mxCell>
        <mxCell id="QwA7imb9_G3cZJTcEvYQ-37" value="" style="verticalLabelPosition=bottom;verticalAlign=top;html=1;shape=mxgraph.basic.rect;fillColor2=none;strokeWidth=1;size=20;indent=5;strokeColor=#FFFFFF;fillColor=#999999;rotation=0;rectStyle=rounded;" parent="1" vertex="1">
          <mxGeometry x="-123.5" y="1364.5" width="124.5" height="31" as="geometry">
            <mxPoint x="-1" y="-1" as="offset" />
          </mxGeometry>
        </mxCell>
        <mxCell id="QwA7imb9_G3cZJTcEvYQ-12" value="&lt;div&gt;&lt;font style=&quot;font-size: 13px;&quot; color=&quot;#ffffff&quot;&gt;Integration&amp;nbsp; Layer&lt;/font&gt;&lt;/div&gt;" style="text;strokeColor=none;fillColor=none;html=1;align=center;verticalAlign=middle;whiteSpace=wrap;rounded=0;fontSize=16;sketch=1;curveFitting=1;jiggle=2;" parent="1" vertex="1">
          <mxGeometry x="129" y="1450.5" width="134.75" height="35" as="geometry" />
        </mxCell>
        <mxCell id="QwA7imb9_G3cZJTcEvYQ-13" value="" style="verticalLabelPosition=bottom;verticalAlign=top;html=1;shape=mxgraph.basic.rect;fillColor2=none;strokeWidth=1;size=20;indent=5;strokeColor=#3399FF;fillColor=#007FFF;rotation=0;rectStyle=rounded;" parent="1" vertex="1">
          <mxGeometry x="-780" y="1356" width="368" height="320" as="geometry">
            <mxPoint x="-1" y="-1" as="offset" />
          </mxGeometry>
        </mxCell>
        <mxCell id="QwA7imb9_G3cZJTcEvYQ-17" value="&lt;font color=&quot;#ffffff&quot;&gt;Frontend&lt;/font&gt;" style="text;strokeColor=none;fillColor=none;html=1;align=center;verticalAlign=middle;whiteSpace=wrap;rounded=0;fontSize=16;" parent="1" vertex="1">
          <mxGeometry x="-647" y="1363" width="60" height="30" as="geometry" />
        </mxCell>
        <mxCell id="QwA7imb9_G3cZJTcEvYQ-20" value="" style="verticalLabelPosition=bottom;verticalAlign=top;html=1;shape=mxgraph.basic.rect;fillColor2=none;strokeWidth=1;size=20;indent=5;strokeColor=#FFFFFF;fillColor=#999999;rotation=0;rectStyle=rounded;" parent="1" vertex="1">
          <mxGeometry x="-741" y="1415" width="129" height="57" as="geometry">
            <mxPoint x="-1" y="-1" as="offset" />
          </mxGeometry>
        </mxCell>
        <mxCell id="QwA7imb9_G3cZJTcEvYQ-22" value="" style="verticalLabelPosition=bottom;verticalAlign=top;html=1;shape=mxgraph.basic.rect;fillColor2=none;strokeWidth=1;size=20;indent=5;strokeColor=#FFFFFF;fillColor=#999999;rotation=0;rectStyle=rounded;" parent="1" vertex="1">
          <mxGeometry x="-568" y="1490" width="104.5" height="30" as="geometry">
            <mxPoint x="-1" y="-1" as="offset" />
          </mxGeometry>
        </mxCell>
        <mxCell id="QwA7imb9_G3cZJTcEvYQ-23" value="" style="verticalLabelPosition=bottom;verticalAlign=top;html=1;shape=mxgraph.basic.rect;fillColor2=none;strokeWidth=1;size=20;indent=5;strokeColor=#FFFFFF;fillColor=#999999;rotation=0;rectStyle=rounded;" parent="1" vertex="1">
          <mxGeometry x="-489" y="1618" width="69" height="27.5" as="geometry">
            <mxPoint x="-1" y="-1" as="offset" />
          </mxGeometry>
        </mxCell>
        <mxCell id="QwA7imb9_G3cZJTcEvYQ-24" value="" style="verticalLabelPosition=bottom;verticalAlign=top;html=1;shape=mxgraph.basic.rect;fillColor2=none;strokeWidth=1;size=20;indent=5;strokeColor=#FFFFFF;fillColor=#999999;rotation=0;rectStyle=rounded;" parent="1" vertex="1">
          <mxGeometry x="-568" y="1441.5" width="114" height="23.5" as="geometry">
            <mxPoint x="-1" y="-1" as="offset" />
          </mxGeometry>
        </mxCell>
        <mxCell id="QwA7imb9_G3cZJTcEvYQ-26" value="&lt;font color=&quot;#ffffff&quot;&gt;&amp;nbsp;User Interface&amp;nbsp;&lt;/font&gt;" style="text;strokeColor=none;fillColor=none;html=1;align=center;verticalAlign=middle;whiteSpace=wrap;rounded=0;fontSize=16;" parent="1" vertex="1">
          <mxGeometry x="-723" y="1417" width="93" height="53" as="geometry" />
        </mxCell>
        <mxCell id="QwA7imb9_G3cZJTcEvYQ-27" value="&lt;font color=&quot;#ffffff&quot;&gt;&amp;nbsp;User Interface&amp;nbsp;&lt;/font&gt;" style="text;strokeColor=none;fillColor=none;html=1;align=center;verticalAlign=middle;whiteSpace=wrap;rounded=0;fontSize=16;" parent="1" vertex="1">
          <mxGeometry x="-615" y="1592.5" width="93" height="53" as="geometry" />
        </mxCell>
        <mxCell id="QwA7imb9_G3cZJTcEvYQ-28" value="" style="verticalLabelPosition=bottom;verticalAlign=top;html=1;shape=mxgraph.basic.rect;fillColor2=none;strokeWidth=1;size=20;indent=5;strokeColor=#FFFFFF;fillColor=#999999;rotation=0;rectStyle=rounded;" parent="1" vertex="1">
          <mxGeometry x="-562" y="1389" width="110" height="32" as="geometry">
            <mxPoint x="-1" y="-1" as="offset" />
          </mxGeometry>
        </mxCell>
        <mxCell id="QwA7imb9_G3cZJTcEvYQ-29" value="&lt;font style=&quot;font-size: 10px;&quot; color=&quot;#ffffff&quot;&gt;&amp;nbsp;User Interface&amp;nbsp;&lt;/font&gt;" style="text;strokeColor=none;fillColor=none;html=1;align=center;verticalAlign=middle;whiteSpace=wrap;rounded=0;fontSize=16;" parent="1" vertex="1">
          <mxGeometry x="-543.25" y="1386" width="81" height="35" as="geometry" />
        </mxCell>
        <mxCell id="QwA7imb9_G3cZJTcEvYQ-30" value="&lt;font style=&quot;font-size: 10px;&quot; color=&quot;#ffffff&quot;&gt;&amp;nbsp;User Interface&amp;nbsp;&lt;/font&gt;" style="text;strokeColor=none;fillColor=none;html=1;align=center;verticalAlign=middle;whiteSpace=wrap;rounded=0;fontSize=16;" parent="1" vertex="1">
          <mxGeometry x="-554.75" y="1424.75" width="92.5" height="57" as="geometry" />
        </mxCell>
        <mxCell id="QwA7imb9_G3cZJTcEvYQ-31" value="&lt;font style=&quot;font-size: 10px;&quot; color=&quot;#ffffff&quot;&gt;&amp;nbsp;User Interface&amp;nbsp;&lt;/font&gt;" style="text;strokeColor=none;fillColor=none;html=1;align=center;verticalAlign=middle;whiteSpace=wrap;rounded=0;fontSize=16;" parent="1" vertex="1">
          <mxGeometry x="-562.25" y="1478.5" width="93" height="53" as="geometry" />
        </mxCell>
        <mxCell id="QwA7imb9_G3cZJTcEvYQ-32" value="" style="verticalLabelPosition=bottom;verticalAlign=top;html=1;shape=mxgraph.basic.rect;fillColor2=none;strokeWidth=1;size=20;indent=5;strokeColor=#FFFFFF;fillColor=#999999;rotation=0;rectStyle=rounded;" parent="1" vertex="1">
          <mxGeometry x="-573" y="1535.5" width="83" height="30.5" as="geometry">
            <mxPoint x="-1" y="-1" as="offset" />
          </mxGeometry>
        </mxCell>
        <mxCell id="QwA7imb9_G3cZJTcEvYQ-33" value="" style="verticalLabelPosition=bottom;verticalAlign=top;html=1;shape=mxgraph.basic.rect;fillColor2=none;strokeWidth=1;size=20;indent=5;strokeColor=#FFFFFF;fillColor=#999999;rotation=0;rectStyle=rounded;" parent="1" vertex="1">
          <mxGeometry x="-759.5" y="1518.75" width="166" height="64" as="geometry">
            <mxPoint x="-1" y="-1" as="offset" />
          </mxGeometry>
        </mxCell>
        <mxCell id="QwA7imb9_G3cZJTcEvYQ-60" value="" style="verticalLabelPosition=bottom;verticalAlign=top;html=1;shape=mxgraph.basic.rect;fillColor2=none;strokeWidth=1;size=20;indent=5;strokeColor=#3399FF;fillColor=#007FFF;rotation=0;rectStyle=rounded;" parent="1" vertex="1">
          <mxGeometry x="-780" y="1356" width="368" height="320" as="geometry">
            <mxPoint x="-1" y="-1" as="offset" />
          </mxGeometry>
        </mxCell>
        <mxCell id="QwA7imb9_G3cZJTcEvYQ-62" value="&lt;font color=&quot;#ffffff&quot;&gt;Frontend&lt;/font&gt;" style="text;strokeColor=none;fillColor=none;html=1;align=center;verticalAlign=middle;whiteSpace=wrap;rounded=0;fontSize=16;" parent="1" vertex="1">
          <mxGeometry x="-647" y="1363" width="60" height="30" as="geometry" />
        </mxCell>
        <mxCell id="QwA7imb9_G3cZJTcEvYQ-64" value="&lt;font color=&quot;#ffffff&quot;&gt;Backend&lt;/font&gt;" style="text;strokeColor=none;fillColor=none;html=1;align=center;verticalAlign=middle;whiteSpace=wrap;rounded=0;fontSize=16;" parent="1" vertex="1">
          <mxGeometry x="177" y="1247" width="60" height="30" as="geometry" />
        </mxCell>
        <mxCell id="QwA7imb9_G3cZJTcEvYQ-65" value="" style="verticalLabelPosition=bottom;verticalAlign=top;html=1;shape=mxgraph.basic.rect;fillColor2=none;strokeWidth=1;size=20;indent=5;strokeColor=#FFFFFF;fillColor=#999999;rotation=0;rectStyle=rounded;" parent="1" vertex="1">
          <mxGeometry x="-746" y="1465" width="129" height="57" as="geometry">
            <mxPoint x="-1" y="-1" as="offset" />
          </mxGeometry>
        </mxCell>
        <mxCell id="QwA7imb9_G3cZJTcEvYQ-66" value="" style="verticalLabelPosition=bottom;verticalAlign=top;html=1;shape=mxgraph.basic.rect;fillColor2=none;strokeWidth=1;size=20;indent=5;strokeColor=#FFFFFF;fillColor=#999999;rotation=0;rectStyle=rounded;" parent="1" vertex="1">
          <mxGeometry x="-585.75" y="1520" width="104.5" height="30" as="geometry">
            <mxPoint x="-1" y="-1" as="offset" />
          </mxGeometry>
        </mxCell>
        <mxCell id="QwA7imb9_G3cZJTcEvYQ-68" value="" style="verticalLabelPosition=bottom;verticalAlign=top;html=1;shape=mxgraph.basic.rect;fillColor2=none;strokeWidth=1;size=20;indent=5;strokeColor=#FFFFFF;fillColor=#999999;rotation=0;rectStyle=rounded;" parent="1" vertex="1">
          <mxGeometry x="-581.37" y="1476" width="114" height="23.5" as="geometry">
            <mxPoint x="-1" y="-1" as="offset" />
          </mxGeometry>
        </mxCell>
        <mxCell id="QwA7imb9_G3cZJTcEvYQ-69" value="&lt;font color=&quot;#ffffff&quot;&gt;&amp;nbsp;User Interface&amp;nbsp;&lt;/font&gt;" style="text;strokeColor=none;fillColor=none;html=1;align=center;verticalAlign=middle;whiteSpace=wrap;rounded=0;fontSize=16;" parent="1" vertex="1">
          <mxGeometry x="-723" y="1472" width="93" height="53" as="geometry" />
        </mxCell>
        <mxCell id="QwA7imb9_G3cZJTcEvYQ-71" value="" style="verticalLabelPosition=bottom;verticalAlign=top;html=1;shape=mxgraph.basic.rect;fillColor2=none;strokeWidth=1;size=20;indent=5;strokeColor=#FFFFFF;fillColor=#999999;rotation=0;rectStyle=rounded;" parent="1" vertex="1">
          <mxGeometry x="-585.5" y="1427.5" width="110" height="32" as="geometry">
            <mxPoint x="-1" y="-1" as="offset" />
          </mxGeometry>
        </mxCell>
        <mxCell id="QwA7imb9_G3cZJTcEvYQ-72" value="&lt;font style=&quot;font-size: 10px;&quot; color=&quot;#ffffff&quot;&gt;Home Screen&lt;/font&gt;" style="text;strokeColor=none;fillColor=none;html=1;align=center;verticalAlign=middle;whiteSpace=wrap;rounded=0;fontSize=16;" parent="1" vertex="1">
          <mxGeometry x="-571" y="1426" width="81" height="35" as="geometry" />
        </mxCell>
        <mxCell id="QwA7imb9_G3cZJTcEvYQ-73" value="&lt;font color=&quot;#ffffff&quot;&gt;&lt;span style=&quot;font-size: 10px;&quot;&gt;Outfit Suggestions&lt;/span&gt;&lt;/font&gt;" style="text;strokeColor=none;fillColor=none;html=1;align=center;verticalAlign=middle;whiteSpace=wrap;rounded=0;fontSize=16;" parent="1" vertex="1">
          <mxGeometry x="-573.75" y="1456.5" width="92.5" height="57" as="geometry" />
        </mxCell>
        <mxCell id="QwA7imb9_G3cZJTcEvYQ-74" value="&lt;font color=&quot;#ffffff&quot;&gt;&lt;span style=&quot;font-size: 10px;&quot;&gt;Notification&lt;/span&gt;&lt;/font&gt;" style="text;strokeColor=none;fillColor=none;html=1;align=center;verticalAlign=middle;whiteSpace=wrap;rounded=0;fontSize=16;" parent="1" vertex="1">
          <mxGeometry x="-577" y="1510.5" width="93" height="53" as="geometry" />
        </mxCell>
        <mxCell id="QwA7imb9_G3cZJTcEvYQ-75" value="" style="verticalLabelPosition=bottom;verticalAlign=top;html=1;shape=mxgraph.basic.rect;fillColor2=none;strokeWidth=1;size=20;indent=19.6;strokeColor=#FFFFFF;fillColor=#999999;rotation=0;rectStyle=rounded;" parent="1" vertex="1">
          <mxGeometry x="-586.62" y="1564.5" width="110.25" height="31" as="geometry">
            <mxPoint x="-1" y="-1" as="offset" />
          </mxGeometry>
        </mxCell>
        <mxCell id="QwA7imb9_G3cZJTcEvYQ-76" value="" style="verticalLabelPosition=bottom;verticalAlign=top;html=1;shape=mxgraph.basic.rect;fillColor2=none;strokeWidth=1;size=20;indent=5;strokeColor=#FFFFFF;fillColor=#999999;rotation=0;rectStyle=rounded;" parent="1" vertex="1">
          <mxGeometry x="-583" y="1610.25" width="99" height="28.75" as="geometry">
            <mxPoint x="-1" y="-1" as="offset" />
          </mxGeometry>
        </mxCell>
        <mxCell id="QwA7imb9_G3cZJTcEvYQ-77" value="&lt;font style=&quot;font-size: 10px;&quot; color=&quot;#ffffff&quot;&gt;Wardrobe Overview&lt;/font&gt;" style="text;strokeColor=none;fillColor=none;html=1;align=center;verticalAlign=middle;whiteSpace=wrap;rounded=0;fontSize=16;" parent="1" vertex="1">
          <mxGeometry x="-609.38" y="1598.13" width="155.38" height="53" as="geometry" />
        </mxCell>
        <mxCell id="QwA7imb9_G3cZJTcEvYQ-79" value="&lt;font style=&quot;font-size: 10px;&quot; color=&quot;#ffffff&quot;&gt;style preference&amp;nbsp;&lt;/font&gt;" style="text;strokeColor=none;fillColor=none;html=1;align=center;verticalAlign=middle;whiteSpace=wrap;rounded=0;fontSize=16;" parent="1" vertex="1">
          <mxGeometry x="-572.37" y="1555.5" width="96" height="50" as="geometry" />
        </mxCell>
        <mxCell id="QwA7imb9_G3cZJTcEvYQ-91" value="&lt;font style=&quot;font-size: 16px;&quot; color=&quot;#ffffff&quot;&gt;Security Layer&lt;/font&gt;" style="text;strokeColor=none;fillColor=none;html=1;align=center;verticalAlign=middle;whiteSpace=wrap;rounded=0;fontSize=16;" parent="1" vertex="1">
          <mxGeometry x="153.37" y="1700" width="143.5" height="59" as="geometry" />
        </mxCell>
        <mxCell id="QwA7imb9_G3cZJTcEvYQ-92" value="" style="verticalLabelPosition=bottom;verticalAlign=top;html=1;shape=mxgraph.basic.rect;fillColor2=none;strokeWidth=1;size=20;indent=5;strokeColor=#FFFFFF;fillColor=#999999;rotation=0;rectStyle=rounded;" parent="1" vertex="1">
          <mxGeometry x="153.37" y="1298" width="114.37" height="27" as="geometry">
            <mxPoint x="-1" y="-1" as="offset" />
          </mxGeometry>
        </mxCell>
        <mxCell id="QwA7imb9_G3cZJTcEvYQ-93" value="&lt;font style=&quot;font-size: 9px;&quot; color=&quot;#ffffff&quot;&gt;AI &amp;amp;machine Learning&lt;/font&gt;" style="text;strokeColor=none;fillColor=none;html=1;align=center;verticalAlign=middle;whiteSpace=wrap;rounded=0;fontSize=16;" parent="1" vertex="1">
          <mxGeometry x="146.63" y="1290.63" width="126" height="41.75" as="geometry" />
        </mxCell>
        <mxCell id="QwA7imb9_G3cZJTcEvYQ-97" value="" style="verticalLabelPosition=bottom;verticalAlign=top;html=1;shape=mxgraph.basic.rect;fillColor2=none;strokeWidth=1;size=20;indent=5;strokeColor=#FFFFFF;fillColor=#999999;rotation=0;rectStyle=rounded;" parent="1" vertex="1">
          <mxGeometry x="137" y="1764" width="145" height="30" as="geometry">
            <mxPoint x="-1" y="-1" as="offset" />
          </mxGeometry>
        </mxCell>
        <mxCell id="QwA7imb9_G3cZJTcEvYQ-94" value="&lt;font style=&quot;font-size: 13px;&quot;&gt;&lt;font style=&quot;font-size: 13px;&quot; color=&quot;#ffffff&quot;&gt;Data Encry&lt;/font&gt;&lt;font style=&quot;font-size: 13px;&quot; color=&quot;#ffffff&quot;&gt;ption&lt;/font&gt;&lt;/font&gt;" style="text;strokeColor=none;fillColor=none;html=1;align=center;verticalAlign=middle;whiteSpace=wrap;rounded=0;fontSize=16;" parent="1" vertex="1">
          <mxGeometry x="87" y="1770.5" width="234.75" height="17" as="geometry" />
        </mxCell>
        <mxCell id="QwA7imb9_G3cZJTcEvYQ-104" value="" style="verticalLabelPosition=bottom;verticalAlign=top;html=1;shape=mxgraph.basic.rect;fillColor2=none;strokeWidth=1;size=20;indent=5;strokeColor=#FFFFFF;fillColor=#999999;rotation=0;rectStyle=rounded;" parent="1" vertex="1">
          <mxGeometry x="139.81" y="1818" width="146.19" height="30.75" as="geometry">
            <mxPoint x="-1" y="-1" as="offset" />
          </mxGeometry>
        </mxCell>
        <mxCell id="QwA7imb9_G3cZJTcEvYQ-105" value="&lt;font style=&quot;font-size: 15px;&quot; color=&quot;#ffffff&quot;&gt;Authentication&lt;/font&gt;" style="text;strokeColor=none;fillColor=none;html=1;align=center;verticalAlign=middle;whiteSpace=wrap;rounded=0;fontSize=16;" parent="1" vertex="1">
          <mxGeometry x="177" y="1824.88" width="67.5" height="17" as="geometry" />
        </mxCell>
        <mxCell id="QwA7imb9_G3cZJTcEvYQ-107" value="" style="verticalLabelPosition=bottom;verticalAlign=top;html=1;shape=mxgraph.basic.rect;fillColor2=none;strokeWidth=1;size=20;indent=5;strokeColor=#FFFFFF;fillColor=#999999;rotation=0;rectStyle=rounded;" parent="1" vertex="1">
          <mxGeometry x="149.13" y="1486" width="117" height="27.5" as="geometry">
            <mxPoint x="-1" y="-1" as="offset" />
          </mxGeometry>
        </mxCell>
        <mxCell id="QwA7imb9_G3cZJTcEvYQ-108" value="&lt;font size=&quot;1&quot; color=&quot;#ffffff&quot;&gt;API Interfaces&lt;/font&gt;" style="text;strokeColor=none;fillColor=none;html=1;align=center;verticalAlign=middle;whiteSpace=wrap;rounded=0;fontSize=16;" parent="1" vertex="1">
          <mxGeometry x="153.37" y="1490" width="112.51" height="17" as="geometry" />
        </mxCell>
        <mxCell id="QwA7imb9_G3cZJTcEvYQ-125" value="" style="verticalLabelPosition=bottom;verticalAlign=top;html=1;shape=mxgraph.basic.rect;fillColor2=none;strokeWidth=1;size=20;indent=5;strokeColor=#FFFFFF;fillColor=#999999;rotation=0;rectStyle=rounded;" parent="1" vertex="1">
          <mxGeometry x="-347" y="1361" width="130.5" height="38" as="geometry">
            <mxPoint x="-1" y="-1" as="offset" />
          </mxGeometry>
        </mxCell>
        <mxCell id="QwA7imb9_G3cZJTcEvYQ-126" value="&lt;font color=&quot;#ffffff&quot;&gt;Application Logic Layer&lt;/font&gt;" style="text;strokeColor=none;fillColor=none;html=1;align=center;verticalAlign=middle;whiteSpace=wrap;rounded=0;fontSize=16;" parent="1" vertex="1">
          <mxGeometry x="-303.49" y="1313" width="190.49" height="42" as="geometry" />
        </mxCell>
        <mxCell id="QwA7imb9_G3cZJTcEvYQ-129" value="&lt;div&gt;&lt;font color=&quot;#ffffff&quot;&gt;Data Layer&amp;nbsp;&lt;/font&gt;&lt;/div&gt;" style="text;strokeColor=none;fillColor=none;html=1;align=center;verticalAlign=middle;whiteSpace=wrap;rounded=0;fontSize=16;sketch=1;curveFitting=1;jiggle=2;" parent="1" vertex="1">
          <mxGeometry x="-316.5" y="1554" width="100" height="30" as="geometry" />
        </mxCell>
        <mxCell id="QwA7imb9_G3cZJTcEvYQ-133" value="" style="verticalLabelPosition=bottom;verticalAlign=top;html=1;shape=mxgraph.basic.rect;fillColor2=none;strokeWidth=1;size=20;indent=5;strokeColor=#FFFFFF;fillColor=#999999;rotation=0;rectStyle=rounded;" parent="1" vertex="1">
          <mxGeometry x="151.13" y="1536" width="117" height="27.5" as="geometry">
            <mxPoint x="-1" y="-1" as="offset" />
          </mxGeometry>
        </mxCell>
        <mxCell id="QwA7imb9_G3cZJTcEvYQ-134" value="" style="verticalLabelPosition=bottom;verticalAlign=top;html=1;shape=mxgraph.basic.rect;fillColor2=none;strokeWidth=1;size=20;indent=5;strokeColor=#FFFFFF;fillColor=#999999;rotation=0;rectStyle=rounded;" parent="1" vertex="1">
          <mxGeometry x="149.13" y="1574.5" width="117" height="27.5" as="geometry">
            <mxPoint x="-1" y="-1" as="offset" />
          </mxGeometry>
        </mxCell>
        <mxCell id="QwA7imb9_G3cZJTcEvYQ-135" value="&lt;font style=&quot;font-size: 9px;&quot; color=&quot;#ffffff&quot;&gt;Cloud service&lt;/font&gt;" style="text;strokeColor=none;fillColor=none;html=1;align=center;verticalAlign=middle;whiteSpace=wrap;rounded=0;fontSize=16;" parent="1" vertex="1">
          <mxGeometry x="134.13" y="1538.5" width="127.51" height="17" as="geometry" />
        </mxCell>
        <mxCell id="QwA7imb9_G3cZJTcEvYQ-136" value="" style="verticalLabelPosition=bottom;verticalAlign=top;html=1;shape=mxgraph.basic.rect;fillColor2=none;strokeWidth=1;size=20;indent=5;strokeColor=#FFFFFF;fillColor=#999999;rotation=0;rectStyle=rounded;" parent="1" vertex="1">
          <mxGeometry x="-316.5" y="1588.75" width="117" height="27.5" as="geometry">
            <mxPoint x="-1" y="-1" as="offset" />
          </mxGeometry>
        </mxCell>
        <mxCell id="QwA7imb9_G3cZJTcEvYQ-137" value="&lt;font size=&quot;1&quot; color=&quot;#ffffff&quot;&gt;Payment Gateway&lt;/font&gt;" style="text;strokeColor=none;fillColor=none;html=1;align=center;verticalAlign=middle;whiteSpace=wrap;rounded=0;fontSize=16;" parent="1" vertex="1">
          <mxGeometry x="162.62" y="1578.5" width="112.51" height="17" as="geometry" />
        </mxCell>
        <mxCell id="QwA7imb9_G3cZJTcEvYQ-138" value="&lt;font size=&quot;1&quot; color=&quot;#ffffff&quot;&gt;API Interfaces&lt;/font&gt;" style="text;strokeColor=none;fillColor=none;html=1;align=center;verticalAlign=middle;whiteSpace=wrap;rounded=0;fontSize=16;" parent="1" vertex="1">
          <mxGeometry x="-308.75" y="1594" width="112.51" height="17" as="geometry" />
        </mxCell>
        <mxCell id="QwA7imb9_G3cZJTcEvYQ-141" value="&lt;font size=&quot;1&quot; color=&quot;#ffffff&quot;&gt;Fashion Database&lt;/font&gt;" style="text;strokeColor=none;fillColor=none;html=1;align=center;verticalAlign=middle;whiteSpace=wrap;rounded=0;fontSize=16;" parent="1" vertex="1">
          <mxGeometry x="-314.25" y="1667.25" width="112.51" height="17" as="geometry" />
        </mxCell>
        <mxCell id="QwA7imb9_G3cZJTcEvYQ-139" value="&lt;font size=&quot;1&quot; color=&quot;#ffffff&quot;&gt;User Data Storage&lt;/font&gt;" style="text;strokeColor=none;fillColor=none;html=1;align=center;verticalAlign=middle;whiteSpace=wrap;rounded=0;fontSize=16;" parent="1" vertex="1">
          <mxGeometry x="-314.25" y="1628" width="112.51" height="17" as="geometry" />
        </mxCell>
        <mxCell id="QwA7imb9_G3cZJTcEvYQ-144" style="edgeStyle=none;curved=1;rounded=0;orthogonalLoop=1;jettySize=auto;html=1;exitX=0.75;exitY=1;exitDx=0;exitDy=0;fontSize=12;startSize=8;endSize=8;" parent="1" source="QwA7imb9_G3cZJTcEvYQ-139" target="QwA7imb9_G3cZJTcEvYQ-139" edge="1">
          <mxGeometry relative="1" as="geometry" />
        </mxCell>
        <mxCell id="QwA7imb9_G3cZJTcEvYQ-145" value="&lt;font size=&quot;1&quot; color=&quot;#ffffff&quot;&gt;Warobe Management&amp;nbsp;&lt;/font&gt;" style="text;strokeColor=none;fillColor=none;html=1;align=center;verticalAlign=middle;whiteSpace=wrap;rounded=0;fontSize=16;" parent="1" vertex="1">
          <mxGeometry x="-340" y="1370" width="112.51" height="17" as="geometry" />
        </mxCell>
        <mxCell id="QwA7imb9_G3cZJTcEvYQ-146" value="" style="verticalLabelPosition=bottom;verticalAlign=top;html=1;shape=mxgraph.basic.rect;fillColor2=none;strokeWidth=1;size=20;indent=5;strokeColor=#FFFFFF;fillColor=#999999;rotation=0;rectStyle=rounded;" parent="1" vertex="1">
          <mxGeometry x="-350" y="1419" width="133" height="35" as="geometry">
            <mxPoint x="-1" y="-1" as="offset" />
          </mxGeometry>
        </mxCell>
        <mxCell id="QwA7imb9_G3cZJTcEvYQ-148" value="" style="verticalLabelPosition=bottom;verticalAlign=top;html=1;shape=mxgraph.basic.rect;fillColor2=none;strokeWidth=1;size=20;indent=5;strokeColor=#FFFFFF;fillColor=#999999;rotation=0;rectStyle=rounded;" parent="1" vertex="1">
          <mxGeometry x="-116.5" y="1416.5" width="117.5" height="34" as="geometry">
            <mxPoint x="-1" y="-1" as="offset" />
          </mxGeometry>
        </mxCell>
        <mxCell id="QwA7imb9_G3cZJTcEvYQ-149" value="&lt;font size=&quot;1&quot; color=&quot;#ffffff&quot;&gt;Outfit Generator&lt;/font&gt;" style="text;strokeColor=none;fillColor=none;html=1;align=center;verticalAlign=middle;whiteSpace=wrap;rounded=0;fontSize=16;" parent="1" vertex="1">
          <mxGeometry x="-117.50999999999999" y="1370" width="112.51" height="17" as="geometry" />
        </mxCell>
        <mxCell id="QwA7imb9_G3cZJTcEvYQ-150" value="&lt;font size=&quot;1&quot; color=&quot;#ffffff&quot;&gt;Recommendation&lt;/font&gt;" style="text;strokeColor=none;fillColor=none;html=1;align=center;verticalAlign=middle;whiteSpace=wrap;rounded=0;fontSize=16;" parent="1" vertex="1">
          <mxGeometry x="-111.50999999999999" y="1427.5" width="112.51" height="17" as="geometry" />
        </mxCell>
        <mxCell id="QwA7imb9_G3cZJTcEvYQ-151" value="&lt;font size=&quot;1&quot; color=&quot;#ffffff&quot;&gt;Personalization Engine&amp;nbsp;&lt;/font&gt;" style="text;strokeColor=none;fillColor=none;html=1;align=center;verticalAlign=middle;whiteSpace=wrap;rounded=0;fontSize=16;" parent="1" vertex="1">
          <mxGeometry x="-338.01" y="1425" width="112.51" height="17" as="geometry" />
        </mxCell>
        <mxCell id="QwA7imb9_G3cZJTcEvYQ-155" style="edgeStyle=none;curved=1;rounded=0;orthogonalLoop=1;jettySize=auto;html=1;exitX=0.75;exitY=0;exitDx=0;exitDy=0;fontSize=12;startSize=8;endSize=8;" parent="1" source="QwA7imb9_G3cZJTcEvYQ-73" target="QwA7imb9_G3cZJTcEvYQ-73" edge="1">
          <mxGeometry relative="1" as="geometry" />
        </mxCell>
        <mxCell id="C59m4Yq-gSfsZeKXXyEo-3" value="" style="rounded=1;whiteSpace=wrap;html=1;fillColor=#f8cecc;strokeColor=#b85450;" parent="1" vertex="1">
          <mxGeometry x="-423.75" y="-843" width="258" height="507" as="geometry" />
        </mxCell>
        <mxCell id="C59m4Yq-gSfsZeKXXyEo-4" value="&lt;p style=&quot;line-height: 120%;&quot;&gt;&lt;br&gt;&lt;/p&gt;" style="rounded=1;whiteSpace=wrap;html=1;fillColor=#dae8fc;strokeColor=#6c8ebf;align=left;" parent="1" vertex="1">
          <mxGeometry x="117.13999999999999" y="-830" width="295.74" height="364" as="geometry" />
        </mxCell>
        <mxCell id="C59m4Yq-gSfsZeKXXyEo-5" value="Backend" style="text;html=1;align=center;verticalAlign=middle;whiteSpace=wrap;rounded=0;" parent="1" vertex="1">
          <mxGeometry x="239.38" y="-813" width="60" height="30" as="geometry" />
        </mxCell>
        <mxCell id="C59m4Yq-gSfsZeKXXyEo-6" value="Frontend" style="text;html=1;align=center;verticalAlign=middle;whiteSpace=wrap;rounded=0;" parent="1" vertex="1">
          <mxGeometry x="-324.75" y="-833" width="60" height="30" as="geometry" />
        </mxCell>
        <mxCell id="C59m4Yq-gSfsZeKXXyEo-7" value="&lt;br&gt;&lt;br&gt;&lt;br&gt;&lt;br&gt;&lt;br&gt;&lt;br&gt;User" style="shape=actor;whiteSpace=wrap;html=1;fillColor=#000000;rounded=1;" parent="1" vertex="1">
          <mxGeometry x="-573.75" y="-619.5" width="50" height="60" as="geometry" />
        </mxCell>
        <mxCell id="C59m4Yq-gSfsZeKXXyEo-9" value="" style="endArrow=classic;html=1;rounded=0;entryX=0.003;entryY=0.523;entryDx=0;entryDy=0;entryPerimeter=0;" parent="1" target="C59m4Yq-gSfsZeKXXyEo-3" edge="1">
          <mxGeometry width="50" height="50" relative="1" as="geometry">
            <mxPoint x="-526.75" y="-578" as="sourcePoint" />
            <mxPoint x="-457.75" y="-586" as="targetPoint" />
          </mxGeometry>
        </mxCell>
        <mxCell id="C59m4Yq-gSfsZeKXXyEo-13" value="" style="edgeStyle=orthogonalEdgeStyle;rounded=0;orthogonalLoop=1;jettySize=auto;html=1;" parent="1" source="C59m4Yq-gSfsZeKXXyEo-10" target="C59m4Yq-gSfsZeKXXyEo-11" edge="1">
          <mxGeometry relative="1" as="geometry" />
        </mxCell>
        <mxCell id="C59m4Yq-gSfsZeKXXyEo-10" value="Authentication" style="rounded=1;whiteSpace=wrap;html=1;fillColor=#fff2cc;strokeColor=#d6b656;" parent="1" vertex="1">
          <mxGeometry x="-397.75" y="-771" width="206" height="52" as="geometry" />
        </mxCell>
        <mxCell id="C59m4Yq-gSfsZeKXXyEo-18" value="" style="edgeStyle=orthogonalEdgeStyle;rounded=0;orthogonalLoop=1;jettySize=auto;html=1;" parent="1" source="C59m4Yq-gSfsZeKXXyEo-11" target="C59m4Yq-gSfsZeKXXyEo-17" edge="1">
          <mxGeometry relative="1" as="geometry" />
        </mxCell>
        <mxCell id="C59m4Yq-gSfsZeKXXyEo-26" value="" style="edgeStyle=orthogonalEdgeStyle;rounded=0;orthogonalLoop=1;jettySize=auto;html=1;entryX=0;entryY=0.5;entryDx=0;entryDy=0;" parent="1" source="C59m4Yq-gSfsZeKXXyEo-11" target="C59m4Yq-gSfsZeKXXyEo-22" edge="1">
          <mxGeometry relative="1" as="geometry">
            <mxPoint x="72.25" y="-725" as="targetPoint" />
          </mxGeometry>
        </mxCell>
        <mxCell id="C59m4Yq-gSfsZeKXXyEo-41" value="GET/POST" style="edgeLabel;html=1;align=center;verticalAlign=middle;resizable=0;points=[];" parent="C59m4Yq-gSfsZeKXXyEo-26" vertex="1" connectable="0">
          <mxGeometry x="-0.6721" y="-1" relative="1" as="geometry">
            <mxPoint as="offset" />
          </mxGeometry>
        </mxCell>
        <mxCell id="C59m4Yq-gSfsZeKXXyEo-11" value="User Prefrences" style="rounded=1;whiteSpace=wrap;html=1;fillColor=#fff2cc;strokeColor=#d6b656;" parent="1" vertex="1">
          <mxGeometry x="-399.75" y="-684" width="209" height="55" as="geometry" />
        </mxCell>
        <mxCell id="C59m4Yq-gSfsZeKXXyEo-12" value="Swipe Feature" style="rounded=1;whiteSpace=wrap;html=1;fillColor=#fff2cc;strokeColor=#d6b656;" parent="1" vertex="1">
          <mxGeometry x="-397.25" y="-479" width="205" height="53" as="geometry" />
        </mxCell>
        <mxCell id="C59m4Yq-gSfsZeKXXyEo-19" value="" style="edgeStyle=orthogonalEdgeStyle;rounded=0;orthogonalLoop=1;jettySize=auto;html=1;" parent="1" source="C59m4Yq-gSfsZeKXXyEo-17" target="C59m4Yq-gSfsZeKXXyEo-12" edge="1">
          <mxGeometry relative="1" as="geometry" />
        </mxCell>
        <mxCell id="C59m4Yq-gSfsZeKXXyEo-17" value="Clothing Upload" style="rounded=1;whiteSpace=wrap;html=1;fillColor=#fff2cc;strokeColor=#d6b656;" parent="1" vertex="1">
          <mxGeometry x="-400.75" y="-583" width="211" height="52" as="geometry" />
        </mxCell>
        <mxCell id="C59m4Yq-gSfsZeKXXyEo-30" value="" style="edgeStyle=orthogonalEdgeStyle;rounded=0;orthogonalLoop=1;jettySize=auto;html=1;" parent="1" source="C59m4Yq-gSfsZeKXXyEo-22" target="C59m4Yq-gSfsZeKXXyEo-24" edge="1">
          <mxGeometry relative="1" as="geometry" />
        </mxCell>
        <mxCell id="C59m4Yq-gSfsZeKXXyEo-22" value="Firestore DB" style="shape=datastore;whiteSpace=wrap;html=1;fillColor=#d5e8d4;strokeColor=#82b366;" parent="1" vertex="1">
          <mxGeometry x="225.88" y="-764.5" width="78.26" height="59.5" as="geometry" />
        </mxCell>
        <mxCell id="C59m4Yq-gSfsZeKXXyEo-24" value="Outfit Reccomendation" style="shape=cylinder3;whiteSpace=wrap;html=1;boundedLbl=1;backgroundOutline=1;size=15;fillColor=#d5e8d4;strokeColor=#82b366;" parent="1" vertex="1">
          <mxGeometry x="211.14" y="-617" width="107.75" height="82" as="geometry" />
        </mxCell>
        <mxCell id="C59m4Yq-gSfsZeKXXyEo-33" value="" style="edgeStyle=orthogonalEdgeStyle;rounded=0;orthogonalLoop=1;jettySize=auto;html=1;entryX=1;entryY=0.5;entryDx=0;entryDy=0;" parent="1" source="C59m4Yq-gSfsZeKXXyEo-24" target="C59m4Yq-gSfsZeKXXyEo-12" edge="1">
          <mxGeometry relative="1" as="geometry">
            <mxPoint x="-114.98809523809518" y="-452" as="targetPoint" />
            <Array as="points">
              <mxPoint x="95.25" y="-576" />
              <mxPoint x="95.25" y="-452" />
            </Array>
          </mxGeometry>
        </mxCell>
        <mxCell id="C59m4Yq-gSfsZeKXXyEo-38" value="GET/POST" style="edgeLabel;html=1;align=center;verticalAlign=middle;resizable=0;points=[];" parent="C59m4Yq-gSfsZeKXXyEo-33" vertex="1" connectable="0">
          <mxGeometry x="0.5558" relative="1" as="geometry">
            <mxPoint as="offset" />
          </mxGeometry>
        </mxCell>
        <mxCell id="C59m4Yq-gSfsZeKXXyEo-29" value="" style="endArrow=none;html=1;rounded=0;exitX=1;exitY=0.5;exitDx=0;exitDy=0;" parent="1" source="C59m4Yq-gSfsZeKXXyEo-17" edge="1">
          <mxGeometry width="50" height="50" relative="1" as="geometry">
            <mxPoint x="115.25" y="-613" as="sourcePoint" />
            <mxPoint x="18.25" y="-656" as="targetPoint" />
            <Array as="points">
              <mxPoint x="18.25" y="-557" />
            </Array>
          </mxGeometry>
        </mxCell>
        <mxCell id="C59m4Yq-gSfsZeKXXyEo-31" value="ChatGPT API" style="ellipse;whiteSpace=wrap;html=1;fillColor=#647687;strokeColor=#314354;fontColor=#ffffff;" parent="1" vertex="1">
          <mxGeometry x="211.14" y="-375" width="120" height="80" as="geometry" />
        </mxCell>
        <mxCell id="C59m4Yq-gSfsZeKXXyEo-34" value="" style="endArrow=classic;startArrow=classic;html=1;rounded=0;entryX=0;entryY=0.5;entryDx=0;entryDy=0;exitX=1;exitY=0.5;exitDx=0;exitDy=0;" parent="1" source="C59m4Yq-gSfsZeKXXyEo-17" target="C59m4Yq-gSfsZeKXXyEo-31" edge="1">
          <mxGeometry width="50" height="50" relative="1" as="geometry">
            <mxPoint x="-12.75" y="-327" as="sourcePoint" />
            <mxPoint x="64.25" y="-365" as="targetPoint" />
            <Array as="points">
              <mxPoint x="20.25" y="-557" />
              <mxPoint x="20.25" y="-335" />
            </Array>
          </mxGeometry>
        </mxCell>
        <mxCell id="C59m4Yq-gSfsZeKXXyEo-37" value="GET/POST" style="edgeLabel;html=1;align=center;verticalAlign=middle;resizable=0;points=[];" parent="C59m4Yq-gSfsZeKXXyEo-34" vertex="1" connectable="0">
          <mxGeometry x="-0.7504" y="2" relative="1" as="geometry">
            <mxPoint as="offset" />
          </mxGeometry>
        </mxCell>
        <mxCell id="C59m4Yq-gSfsZeKXXyEo-40" value="GET/POST" style="edgeLabel;html=1;align=center;verticalAlign=middle;resizable=0;points=[];" parent="C59m4Yq-gSfsZeKXXyEo-34" vertex="1" connectable="0">
          <mxGeometry x="0.6405" relative="1" as="geometry">
            <mxPoint as="offset" />
          </mxGeometry>
        </mxCell>
        <mxCell id="mqeeS940kz2wLgj18yEs-1" value="Actor" style="shape=umlActor;verticalLabelPosition=bottom;verticalAlign=top;html=1;outlineConnect=0;" vertex="1" parent="1">
          <mxGeometry x="-947" y="-935.5" width="106" height="167" as="geometry" />
        </mxCell>
      </root>
    </mxGraphModel>
  </diagram>
</mxfile>
